<svg xmlns="http://www.w3.org/2000/svg" width="1468" height="398"><rect width="100%" height="100%" fill="white" /><rect x="200" y="180" width="1000" height="20" fill="rgba(56, 159, 182, 0.2)" stroke="#389fb6" stroke-width="2" /><g stroke="#4f5659" fill="none" stroke-width="2"><path d="M 200 200 L 185 215 L 215 215 Z" /><path d="M 182 220 L 188 215" /><path d="M 188 220 L 194 215" /><path d="M 194 220 L 200 215" /><path d="M 200 220 L 206 215" /><path d="M 206 220 L 212 215" /><path d="M 212 220 L 218 215" /></g><g stroke="#4f5659" fill="none" stroke-width="2"><path d="M 1200 200 L 1185 215 L 1215 215 Z" /><circle cx="1188" cy="220" r="3" stroke="#4f5659" fill="none" stroke-width="2" /><circle cx="1194" cy="220" r="3" stroke="#4f5659" fill="none" stroke-width="2" /><circle cx="1200" cy="220" r="3" stroke="#4f5659" fill="none" stroke-width="2" /><circle cx="1206" cy="220" r="3" stroke="#4f5659" fill="none" stroke-width="2" /><circle cx="1212" cy="220" r="3" stroke="#4f5659" fill="none" stroke-width="2" /></g><g stroke="#4f5659" fill="none" stroke-width="2"><path d="M 800 200 L 785 215 L 815 215 Z" /><circle cx="788" cy="220" r="3" stroke="#4f5659" fill="none" stroke-width="2" /><circle cx="794" cy="220" r="3" stroke="#4f5659" fill="none" stroke-width="2" /><circle cx="800" cy="220" r="3" stroke="#4f5659" fill="none" stroke-width="2" /><circle cx="806" cy="220" r="3" stroke="#4f5659" fill="none" stroke-width="2" /><circle cx="812" cy="220" r="3" stroke="#4f5659" fill="none" stroke-width="2" /></g><circle cx="1000" cy="190" r="6" fill="white" stroke="#4f5659" stroke-width="2" /><g stroke="#d9534f" fill="none" stroke-width="2"><path d="M 1100 130 L 1100 180" /><path d="M 0 0 L -10 -5 M 0 0 L -10 5" transform="translate(1100, 180) rotate(90)" /></g><text x="1100" y="125" text-anchor="middle" font-family="Arial" font-size="12px" fill="#d9534f">5.0 kN</text><g stroke="#d9534f" fill="none" stroke-width="2"><path d="M 600 140 L 800 140" /><path d="M 600 140 L 600 180 L 596 172 M 600 180 L 604 172" /><path d="M 633.3333333333334 140 L 633.3333333333334 180 L 629.3333333333334 172 M 633.3333333333334 180 L 637.3333333333334 172" /><path d="M 666.6666666666666 140 L 666.6666666666666 180 L 662.6666666666666 172 M 666.6666666666666 180 L 670.6666666666666 172" /><path d="M 700 140 L 700 180 L 696 172 M 700 180 L 704 172" /><path d="M 733.3333333333334 140 L 733.3333333333334 180 L 729.3333333333334 172 M 733.3333333333334 180 L 737.3333333333334 172" /><path d="M 766.6666666666667 140 L 766.6666666666667 180 L 762.6666666666667 172 M 766.6666666666667 180 L 770.6666666666667 172" /><path d="M 800 140 L 800 180 L 796 172 M 800 180 L 804 172" /></g><text x="700" y="135" text-anchor="middle" font-family="Arial" font-size="12px" fill="#d9534f">4.00 kN/m</text><g stroke="#d9534f" fill="none" stroke-width="2"><path d="M 200 60 L 600 140" /><path d="M 200 60 L 200 180 L 196 172 M 200 180 L 204 172" /><path d="M 230.76923076923077 66.15384615384616 L 230.76923076923077 180 L 226.76923076923077 172 M 230.76923076923077 180 L 234.76923076923077 172" /><path d="M 261.53846153846155 72.3076923076923 L 261.53846153846155 180 L 257.53846153846155 172 M 261.53846153846155 180 L 265.53846153846155 172" /><path d="M 292.3076923076923 78.46153846153847 L 292.3076923076923 180 L 288.3076923076923 172 M 292.3076923076923 180 L 296.3076923076923 172" /><path d="M 323.0769230769231 84.61538461538461 L 323.0769230769231 180 L 319.0769230769231 172 M 323.0769230769231 180 L 327.0769230769231 172" /><path d="M 353.8461538461538 90.76923076923076 L 353.8461538461538 180 L 349.8461538461538 172 M 353.8461538461538 180 L 357.8461538461538 172" /><path d="M 384.61538461538464 96.92307692307693 L 384.61538461538464 180 L 380.61538461538464 172 M 384.61538461538464 180 L 388.61538461538464 172" /><path d="M 415.38461538461536 103.07692307692307 L 415.38461538461536 180 L 411.38461538461536 172 M 415.38461538461536 180 L 419.38461538461536 172" /><path d="M 446.1538461538462 109.23076923076923 L 446.1538461538462 180 L 442.1538461538462 172 M 446.1538461538462 180 L 450.1538461538462 172" /><path d="M 476.9230769230769 115.38461538461539 L 476.9230769230769 180 L 472.9230769230769 172 M 476.9230769230769 180 L 480.9230769230769 172" /><path d="M 507.6923076923077 121.53846153846153 L 507.6923076923077 180 L 503.6923076923077 172 M 507.6923076923077 180 L 511.6923076923077 172" /><path d="M 538.4615384615385 127.6923076923077 L 538.4615384615385 180 L 534.4615384615385 172 M 538.4615384615385 180 L 542.4615384615385 172" /><path d="M 569.2307692307693 133.84615384615387 L 569.2307692307693 180 L 565.2307692307693 172 M 569.2307692307693 180 L 573.2307692307693 172" /><path d="M 600 140 L 600 180 L 596 172 M 600 180 L 604 172" /></g><text x="200" y="55" text-anchor="middle" font-family="Arial" font-size="12px" fill="#d9534f">12.00 kN/m</text><text x="600" y="135" text-anchor="middle" font-family="Arial" font-size="12px" fill="#d9534f">4.00 kN/m</text><g stroke="#000000" stroke-width="1"><path d="M 200 260 L 200 280" /><path d="M 600 260 L 600 280" /><path d="M 200 270 L 600 270" /><path d="M 600 260 L 600 280" /><path d="M 800 260 L 800 280" /><path d="M 600 270 L 800 270" /><path d="M 800 260 L 800 280" /><path d="M 1000 260 L 1000 280" /><path d="M 800 270 L 1000 270" /><path d="M 1000 260 L 1000 280" /><path d="M 1100 260 L 1100 280" /><path d="M 1000 270 L 1100 270" /><path d="M 1100 260 L 1100 280" /><path d="M 1200 260 L 1200 280" /><path d="M 1100 270 L 1200 270" /></g><text x="400" y="285" text-anchor="middle" font-family="Arial" font-size="12px" fill="#000000">2.00 m</text><text x="700" y="285" text-anchor="middle" font-family="Arial" font-size="12px" fill="#000000">1.00 m</text><text x="900" y="285" text-anchor="middle" font-family="Arial" font-size="12px" fill="#000000">1.00 m</text><text x="1050" y="285" text-anchor="middle" font-family="Arial" font-size="12px" fill="#000000">0.50 m</text><text x="1150" y="285" text-anchor="middle" font-family="Arial" font-size="12px" fill="#000000">0.50 m</text></svg>